<?xml version="1.0" encoding="iso-8859-1"?>
<!-- Generator: Adobe Illustrator 19.0.0, SVG Export Plug-In . SVG Version: 6.00 Build 0)  -->
<svg xmlns="http://www.w3.org/2000/svg" xmlns:xlink="http://www.w3.org/1999/xlink" version="1.1" id="Layer_1" x="0px" y="0px" viewBox="0 0 259.465 259.465" style="enable-background:new 0 0 259.465 259.465;" xml:space="preserve" width="512px" height="512px">
<g>
	<g>
		<g>
			<path d="M216.544,9.994H42.921c-25.535,0-45.436,22.21-42.662,47.579l12.258,112.159c2.385,21.808,20.726,38.253,42.662,38.253     c7.486,0,65.908,0,76.517,0l35.642,36.216c9.988,10.153,27.357,4.854,29.913-9.212l4.91-27.004     c25.999,0,42.539-17.686,44.788-38.253l12.258-112.159C261.981,32.189,242.064,9.994,216.544,9.994z M244.294,55.943     l-12.257,112.159c-1.552,14.186-13.481,24.883-27.751,24.883h-8.385c-3.625,0-6.73,2.592-7.379,6.158l-6.03,33.163     c-0.384,2.108-2.963,2.9-4.464,1.374l-25.831-26.248c7.594-3.084,5.391-14.448-2.818-14.448c-10.983,0-84.789,0-94.2,0     c-14.269,0-26.199-10.697-27.75-24.883L15.171,55.943c-1.806-16.511,11.149-30.949,27.75-30.949h173.623     C233.153,24.994,246.099,39.44,244.294,55.943z" fill="#1360D4"/>
			<circle cx="84.136" cy="113.734" r="12.193" fill="#1360D4"/>
			<circle cx="129.732" cy="113.734" r="12.193" fill="#1360D4"/>
			<circle cx="175.328" cy="113.734" r="12.193" fill="#1360D4"/>
		</g>
	</g>
</g>
<g>
</g>
<g>
</g>
<g>
</g>
<g>
</g>
<g>
</g>
<g>
</g>
<g>
</g>
<g>
</g>
<g>
</g>
<g>
</g>
<g>
</g>
<g>
</g>
<g>
</g>
<g>
</g>
<g>
</g>
</svg>
