<?xml version="1.0" encoding="iso-8859-1"?>
<!-- Generator: Adobe Illustrator 18.1.1, SVG Export Plug-In . SVG Version: 6.00 Build 0)  -->
<svg version="1.1" id="Capa_1" xmlns="http://www.w3.org/2000/svg" xmlns:xlink="http://www.w3.org/1999/xlink" x="0px" y="0px"
	 viewBox="0 0 76 76" style="enable-background:new 0 0 76 76;" xml:space="preserve">
<g id="_x37_7_Essential_Icons_10_">
	<path id="Message_Lines" d="M62,31.007c0,1.1-0.9,2-2,2H16c-1.1,0-2-0.9-2-2c0-1.1,0.9-2,2-2h44C61.1,29.007,62,29.907,62,31.007z
		 M47.8,39.007H16c-1.1,0-2,0.9-2,2s0.9,2,2,2h31.8c1.1,0,2-0.9,2-2S48.9,39.007,47.8,39.007z M60,19.007H16c-1.1,0-2,0.9-2,2
		c0,1.1,0.9,2,2,2h44c1.1,0,2-0.9,2-2C62,19.907,61.1,19.007,60,19.007z M76,7.007v48c0,1.1-0.9,2-2,2H35l-13.6,13.4
		c-0.5,0.6-3.4,1.4-3.4-1.4v-12H2c-1.1,0-2-0.9-2-2v-48c0-1.1,0.9-2,2-2h72C75.1,5.007,76,5.907,76,7.007z M72,9.007H4v44h16
		c1.1,0,2,0.9,2,2v9.2l10.8-10.6c0.4-0.4,0.9-0.6,1.4-0.6H72V9.007z"/>
</g>
<g>
</g>
<g>
</g>
<g>
</g>
<g>
</g>
<g>
</g>
<g>
</g>
<g>
</g>
<g>
</g>
<g>
</g>
<g>
</g>
<g>
</g>
<g>
</g>
<g>
</g>
<g>
</g>
<g>
</g>
</svg>
